<svg xmlns="http://www.w3.org/2000/svg" xmlns:xlink="http://www.w3.org/1999/xlink" version="1.1" x="0px" y="0px" viewBox="0 0 1024 1280" style="enable-background:new 0 0 1024 1024;" xml:space="preserve"><g><g><g><path d="M909.6,881.4c-6.3,0-12.6,0-18.9,0c-17.2,0-34.5,0-51.7,0c-25.6,0-51.1,0-76.7,0c-31.7,0-63.4,0-95.1,0     c-35.3,0-70.5,0-105.8,0c-36.4,0-72.8,0-109.2,0c-35,0-70.1,0-105.1,0c-31.1,0-62.2,0-93.3,0c-25,0-50,0-75,0     c-16.3,0-32.6,0-48.9,0c-4.1,0-8.2,0-12.3,0c-0.9,0-1.8,0-2.8,0c-0.2,0-0.3,0-0.5,0c-1.4,0-2.8-0.1-4.2-0.2     c-3.6-0.2,3.9,0.8-0.7-0.2c-1.7-0.4-3.4-0.9-5.1-1.5c-0.1,0-1.9-0.6-1.9-0.7c0-0.4,3.6,2.1,1.8,0.7c-1.2-0.9-2.7-1.4-4-2.2     c-0.3-0.2-3.3-2-3.2-2.2c0.1-0.2,3.8,3.4,1,0.7c-0.6-0.6-1.3-1.1-1.9-1.7c-0.9-0.9-1.8-1.9-2.7-2.8c-2.3-2.4,2,3.2-0.4-0.6     c-0.8-1.3-1.6-2.5-2.3-3.9c-0.3-0.5-0.5-1.3-0.9-1.7c-1.4-1.8,1.1,3.4,0.5,1.2c-0.6-2.2-1.2-6.3-2.3-8.3c1.3,2.2,0.3,3.6,0.2,1.3     c0-0.7-0.1-1.4-0.1-2.1c0-0.7,0-1.4-0.1-2.1c0-0.2,0-0.3,0-0.5c0-2.9,0-5.8,0-8.7c0-15.4,0-30.9,0-46.3c0-25.5,0-51.1,0-76.6     c0-32.3,0-64.7,0-97c0-35.7,0-71.3,0-107c0-36,0-72.1,0-108.1c0-32.9,0-65.9,0-98.8c0-26.6,0-53.1,0-79.7c0-16.9,0-33.7,0-50.6     c0-3.8,0-7.5,0-11.3c0-0.5,0-1.1,0-1.6c0-0.4,0-1,0-1.4c0-1,0.4-5.9,0.1-2.8c-0.3,3.1,0.3-1.1,0.6-1.9c0.4-1.7,1.1-3.3,1.6-5     c0.6-2.1-0.6,1.9-0.7,1.8c0,0,1.3-2.5,1.2-2.3c0.6-1.1,1.3-2.3,2-3.4c0.3-0.5,0.8-1,1.1-1.6c1.3-2.2-2.6,2.7-0.7,1     c1.1-1,2-2.3,3.1-3.3c0.8-0.7,3.6-4,1.9-1.8c-1.4,1.7-0.8,0.6,0.1,0c0.5-0.3,1.1-0.7,1.6-1.1c1.3-0.8,2.6-1.5,4-2.2     c1.7-1,0.4-0.8,0-0.1c-1.6,0.6-1.6,0.7,0,0c0.4-0.1,0.8-0.3,1.2-0.4c1.3-0.4,2.5-0.8,3.8-1.1c0.6-0.1,2.2-0.3,2.6-0.5     c0,0-4.2,0.4-2,0.2c1.6-0.1,3.3-0.2,4.9-0.3c2,0,3.9,0,5.9,0c11.1,0,22.3,0,33.4,0c34.7,0,69.4,0,104.1,0c13.8,0,27.7,0,41.5,0     c4,0,8,0,12,0c1,0,1.9,0,2.9,0c0.2,0,0.4,0,0.6,0c0.9,0,6.3,0.5,3.5,0.1c-2.8-0.4,1.8,0.5,2.5,0.6c1.5,0.4,3.8,0.7,5,1.6     c0,0-3.3-1.7-1.4-0.5c0.6,0.4,1.3,0.7,2,1c0.9,0.5,4.7,2.1,5,3.2c0,0.2-2.8-2.6-1.1-0.8c0.5,0.5,1.1,1,1.7,1.5     c1.3,1.2,2.5,2.6,3.6,3.9c0.3,0.3,0.6,0.7,0.8,1c2.7,3.4,5.3,6.8,7.9,10.2c10.4,13.2,20.7,26.5,31.1,39.7     c6.5,8.3,12.9,16.7,19.5,24.9c12.3,15.3,31.7,23,51.1,23.1c14.3,0,28.6,0,42.9,0c28.4,0,56.9,0,85.3,0c35.2,0,70.5,0,105.7,0     c35.2,0,70.4,0,105.6,0c27.8,0,55.6,0,83.4,0c13.2,0,26.5-0.1,39.7,0c0.3,0,0.5,0,0.8,0c1.2,0,2.3,0,3.5,0.1     c5.1,0.4-2.7-0.8,0.7,0.1c1.7,0.4,3.4,0.8,5.1,1.4c0.6,0.2,1.2,0.5,1.9,0.7c2.2,0.5-1.9-0.5-1.8-0.7c0.1-0.1,3.9,2.1,4,2.1     c1.1,0.7,2.1,1.5,3.3,2.1c1.9,1.1-1.7-1-1.5-1.2c0.1-0.1,2.2,1.9,2.4,2.1c0.9,0.9,1.8,1.8,2.7,2.8c3.3,3.4-1.3-2.4,0.5,0.5     c0.7,1.1,1.4,2.2,2.1,3.3c0.4,0.8,0.8,1.5,1.2,2.3c1.6,2.8-0.5-1.2-0.4-1.2c0.8,0,2.2,7.3,2.4,8.3c0.7,2.6-0.3-4.1-0.1-1.3     c0,0.7,0.1,1.4,0.2,2c0.1,0.9,0.1,1.8,0.1,2.8c0,0.2,0,0.4,0,0.5c0,1.2,0,2.4,0,3.6c0,14.3,0,28.7,0,43c0,26.4,0,52.7,0,79.1     c0,33.7,0,67.3,0,101c0,36.3,0,72.6,0,108.9c0,34.1,0,68.2,0,102.3c0,27.5,0,55.1,0,82.6c0,16.2,0,32.3,0,48.5c0,2.3,0,4.7,0,7     c0,1.2,0,2.3-0.1,3.5c-0.3,4.7,0.8-2.8-0.1,0.7c-0.3,1.3-0.6,2.6-1,3.9c-0.3,0.8-0.6,1.7-0.8,2.5c-0.6,1.8-0.9,0.5,0,0     c0.7-0.4,0.9-1.7-0.1,0c-0.3,0.6-0.6,1.2-0.9,1.7c-0.7,1.3-1.6,2.6-2.4,3.9c-1.9,3,2.4-2.5,0,0c-1,1.1-2,2.2-3.1,3.3     c-0.5,0.4-1,0.9-1.4,1.3c-2.2,2.2,0.9-1.1,1-0.7c0.2,0.7-6.7,3.9-7.2,4.3c-1.8,1.4,1.8-1.1,1.8-0.7c0,0.1-1.7,0.6-1.9,0.7     c-1.5,0.5-2.9,1-4.4,1.3c-0.6,0.2-1.3,0.2-2,0.4c-2.1,0.6,1.9-0.2,2-0.2C913.3,880.9,911.3,881.3,909.6,881.4     c-10.5,0.2-20.5,9.1-20,20c0.5,10.7,8.8,20.2,20,20c32.4-0.5,61-24.3,65.4-56.7c0.7-5.1,0.9-9.9,0.9-14.9c0-15.5,0-31,0-46.4     c0-27.5,0-54.9,0-82.4c0-34.4,0-68.8,0-103.2c0-36.6,0-73.2,0-109.9c0-34,0-68.1,0-102.1c0-26.6,0-53.3,0-79.9     c0-14.4,0-28.9,0-43.3c0-8.9-0.7-17.9-4-26.3c-10.1-26.1-34.2-43.5-62.4-43.8c-11.8-0.1-23.7,0-35.5,0c-27.2,0-54.5,0-81.7,0     c-35.4,0-70.8,0-106.2,0c-35.9,0-71.7,0-107.6,0c-29.1,0-58.2,0-87.3,0c-14.9,0-29.8,0-44.8,0c-1.2,0-2.3,0-3.5,0     c-0.8,0-1.5-0.1-2.3-0.1c-2.8,0,3.6,0.9,0.8,0.1c-1.4-0.4-2.9-0.6-4.4-1.1c-1-0.3-1.9-0.7-2.8-0.9c-2.3-0.7,1.4,0.4,1.3,0.6     c-0.2,0.2-4.9-2.7-5.2-2.9c-0.6-0.4-1.2-0.9-1.9-1.3c-2-1.3,1.2,0.8,1.1,0.8c-0.4,0.2-3.4-3.2-3.8-3.7c-0.9-1-1.8-2.1-2.6-3.1     c-7.4-9.3-14.6-18.7-22-28.1c-10.2-13-20.3-26-30.5-39c-2.1-2.6-4.1-5.3-6.2-7.9c-10.9-13.6-27.2-20.9-44.2-22.8     c-7-0.8-14.2-0.3-21.2-0.3c-14,0-28.1,0-42.1,0c-34.9,0-69.8,0-104.8,0c-10.9,0-21.9,0-32.8,0c-1.6,0-3.3,0-4.9,0     c-16.3,0.2-31.1,6-43.5,16.4c-14.9,12.4-22.7,31.7-22.7,50.8c0,3.3,0,6.7,0,10c0,16.3,0,32.7,0,49c0,26.4,0,52.8,0,79.1     c0,33,0,66.1,0,99.1c0,36.3,0,72.6,0,108.9c0,36.2,0,72.4,0,108.5c0,32.7,0,65.3,0,98c0,25.8,0,51.5,0,77.3c0,15.5,0,31,0,46.4     c0,2.8,0,5.7,0,8.5c0.2,23.9,13,47,34.3,58.4c14.7,7.9,29.4,8.2,45.2,8.2c15.8,0,31.6,0,47.4,0c24.8,0,49.6,0,74.4,0     c31.3,0,62.6,0,93.9,0c35.3,0,70.5,0,105.8,0c36.7,0,73.4,0,110.1,0c35.6,0,71.3,0,106.9,0c32,0,64,0,96,0c26,0,51.9,0,77.9,0     c17.2,0,34.3,0,51.5,0c6,0,11.9,0,17.9,0c10.5,0,20.5-9.2,20-20C929.1,890.5,920.8,881.4,909.6,881.4z"/></g></g><g><g><path d="M909.6,881.4c-19.1,0-38.2,0-57.3,0c-47.6,0-95.3,0-142.9,0c-62.6,0-125.2,0-187.8,0c-63,0-126,0-189,0     c-50,0-100,0-149.9,0c-22.5,0-45,0.1-67.5,0c-0.2,0-0.4,0-0.6,0c0,0-0.1,0-0.1,0c-0.5,0,0.5,0-1.4,0c-0.9,0-1.8-0.1-2.7-0.2     c-2.2-0.2-1.8-0.2,1.3,0.2c-0.1,0.3-7.1-1.9-7.7-2.1c-3.7-1.2,1.2,0.4,1.1,0.5c-0.1,0.1-3.2-1.7-3.5-1.8     c-1.1-0.6-2.2-1.4-3.3-2.1c-3.8-2.3,3.1,3,0,0c-0.9-0.9-1.9-1.7-2.8-2.7c-0.6-0.6-1.2-1.3-1.7-1.9c-1.4-1.6-1.1-1.3,0.7,1     c-0.6,0.2-3.7-6-4.1-6.6c-2.2-3.9,1.3,4.3-0.1,0c-0.4-1.3-0.9-2.5-1.2-3.8c-0.1-0.3-1-3.9-0.9-3.9c0.1,0.9,0.2,1.8,0.3,2.6     c-0.1-0.9-0.2-1.8-0.2-2.7c-0.1-0.9-0.1-1.9-0.1-2.8c0-0.7,0-1.5,0-2.2c0-12.6,0-25.1,0-37.7c0-54.5,0-109.1,0-163.6     c0-61.5,0-123,0-184.6c0-20.7,0-41.5,0-62.2c0-8.7-0.4-17.6,0.1-26.4c0-0.5,0.1-0.9,0.1-1.4c0.2-2.2,0.2-1.8-0.2,1.3     c-0.1,0,0.8-3.7,0.9-3.9c0.3-1.3,0.8-2.5,1.2-3.8c1.3-4.3-2.2,3.8,0.1,0c0.4-0.7,3.4-6.8,4.1-6.6c-0.5,0.7-1,1.3-1.5,2     c0.5-0.7,1.1-1.3,1.7-1.9c1-1.1,2.2-2.1,3.2-3.2c2.9-2.9-0.5,0.4-0.5,0.3c-0.1-0.2,3-2,3.2-2.2c1.1-0.7,2.3-1.2,3.4-1.9     c3.9-2.2-4.3,1.3,0-0.1c0.6-0.2,7.6-2.4,7.7-2.1c-0.9,0.1-1.8,0.2-2.6,0.3c0.9-0.1,1.8-0.2,2.7-0.2c1.1-0.1,1.6-0.1,2.8-0.1     c1.4,0,2.8,0,4.2,0c10,0,19.9,0,29.9,0c42,0,84.1,0,126.1,0c60,0,120,0,180.1,0c64.4,0,128.9,0,193.3,0c54.2,0,108.5,0,162.7,0     c30.6,0,61.1,0,91.7,0c2.2,0,4.5,0,6.7,0c0.2,0,0.3,0,0.5,0c0,0,0.1,0,0.1,0c1.2,0,1.6,0,2.8,0.1c0.9,0.1,1.8,0.1,2.7,0.2     c-3.1-0.4-3.5-0.5-1.3-0.1c0.8,0.2,7.5,1.5,7.6,2.3c-0.8-0.3-1.6-0.7-2.4-1c0.8,0.4,1.6,0.8,2.3,1.2c1.1,0.6,2.3,1.3,3.4,2     c0.4,0.2,0.7,0.5,1.1,0.7c1.7,1.3,1.4,1-1-0.8c0.2-0.1,2.7,2.4,2.9,2.6c0.9,0.9,1.8,1.9,2.7,2.8c1.4,1.6,1.1,1.3-0.7-1     c0.5,0.7,1,1.4,1.5,2.1c0.2,0.4,3.4,5.5,3.2,5.7c-0.3-0.8-0.7-1.6-1-2.4c0.3,0.8,0.6,1.6,0.9,2.5c0.4,1.3,0.8,2.5,1.1,3.8     c0.1,0.4,0.2,0.9,0.3,1.3c0.4,2.2,0.4,1.8-0.1-1.3c0.4,0.2,0.3,3.7,0.3,4.1c0,0.5,0,1,0,1.5c0,0.8,0,1.6,0,2.4     c0,4.6,0,9.2,0,13.8c0,47.2,0,94.4,0,141.6c0,63.2,0,126.4,0,189.6c0,40.3,0,80.7,0,121c0,2.7,0.1,5.5-0.1,8.2     c0,0.5-0.1,0.9-0.1,1.4c-0.2,2.2-0.2,1.8,0.2-1.3c0,0-0.6,2.8-0.5,2.6c-0.3,1.3-0.7,2.6-1.1,3.8c-0.1,0.4-0.3,0.8-0.4,1.2     c-0.8,2-0.6,1.6,0.5-1.1c0.4,0.3-3.5,6.2-3.9,6.8c-2.3,3.8,3-3.1,0,0c-0.9,0.9-1.7,1.9-2.7,2.8c-0.2,0.2-2.7,2.7-2.9,2.6     c0.7-0.5,1.3-1,2-1.5c-0.7,0.5-1.4,1-2.1,1.5c-1.1,0.7-2.2,1.4-3.4,2c-0.4,0.2-0.8,0.4-1.2,0.6c-2,0.9-1.6,0.8,1.2-0.4     c-0.1,0.8-6.8,2.1-7.6,2.3c-4.4,1.2,4.6-0.1,0,0.1C912.3,881.2,911,881.3,909.6,881.4c-10.5,0.2-20.5,9.1-20,20     c0.5,10.7,8.8,20.2,20,20c29.2-0.4,55.1-19.5,63.6-47.6c2.2-7.3,2.7-15,2.7-22.6c0-14,0-28.1,0-42.1c0-56.8,0-113.7,0-170.5     c0-61.1,0-122.1,0-183.2c0-19.3,0-38.7,0-58c0-17.2,0.2-33.6-8.8-49.3c-11.8-20.5-34-32.9-57.5-33.2c-1.8,0-3.6,0-5.3,0     c-10.7,0-21.3,0-32,0c-43.7,0-87.4,0-131,0c-61.6,0-123.1,0-184.7,0c-64.8,0-129.7,0-194.5,0c-53.6,0-107.1,0-160.7,0     c-27.7,0-55.5,0-83.2,0c-2.1,0-4.3,0-6.4,0.1c-28.4,1.7-53.7,20.9-61.2,48.8c-3.3,12.1-2.3,25.4-2.3,37.8c0,49.6,0,99.3,0,148.9     c0,63.8,0,127.6,0,191.4c0,37,0,74,0,111.1c0,12.7,2.8,25.4,9.5,36.3c12.1,19.9,33.7,31.8,56.9,32.1c6.2,0.1,12.4,0,18.5,0     c37.1,0,74.3,0,111.4,0c58.6,0,117.2,0,175.7,0c65.4,0,130.7,0,196.1,0c57.6,0,115.2,0,172.9,0c35.3,0,70.7,0,106,0     c4.8,0,9.5,0,14.3,0c10.5,0,20.5-9.2,20-20C929.1,890.5,920.8,881.4,909.6,881.4z"/></g></g><g><g><path d="M573.6,517.1c0,2.1-0.1,4.2-0.2,6.3c-0.1,0.9-0.2,1.8-0.3,2.7c-0.2,2.8,0.7-4,0.2-1.2     c-0.8,4.2-1.7,8.3-3,12.4c-0.2,0.8-1.1,4.7-1.8,5c0.5-0.2,1.8-3.8,0.4-1.1c-0.4,0.8-0.8,1.6-1.1,2.4c-1.8,3.5-3.8,6.9-6,10.1     c-0.2,0.3-2.9,3.8-0.8,1.1c1.8-2.3,0,0-0.5,0.5c-1.3,1.5-2.6,3-3.9,4.4c-1.2,1.2-2.5,2.5-3.7,3.6c-0.6,0.6-1.3,1.2-2,1.7     c-0.5,0.4-1,0.8-1.5,1.3c-1.2,0.9-0.7,0.6,1.5-1.1c-0.2,1.6-7.3,4.9-8.8,5.7c-1.7,1-3.5,1.8-5.3,2.7c-0.7,0.3-3.3,1.6-0.6,0.3     c3-1.4-1.3,0.5-1.9,0.7c-3.6,1.3-7.3,2.3-11,3.1c-1.9,0.4-6.7,0.3-1.4,0.4c-2.3-0.1-4.6,0.4-6.9,0.5c-3.7,0.1-7.4-0.1-11.1-0.4     c-4.6-0.3,3.5,0.7,0.6,0.1c-0.9-0.2-1.8-0.3-2.7-0.5c-2.2-0.4-4.4-1-6.6-1.6c-1.9-0.5-3.8-1.2-5.7-1.9c-0.4-0.1-2.4-0.8-2.5-1     c0,0,4.6,2.2,1.1,0.4c-3.5-1.8-7-3.6-10.3-5.7c-0.7-0.5-4.2-2.2-4.3-3c0.1,0.5,3.2,2.6,1,0.7c-0.8-0.7-1.7-1.4-2.5-2.1     c-2.9-2.6-5.6-5.5-8.2-8.4c-2.4-2.7-0.9,0.3,0.3,0.5c-0.2,0-1.5-2.1-1.5-2.1c-1-1.4-2-2.9-2.9-4.4c-0.9-1.5-1.8-3-2.6-4.6     c-0.4-0.8-0.8-1.6-1.2-2.4c-0.4-0.8-0.8-1.6-1.1-2.4c0.3,0.8,0.7,1.6,1,2.3c-1.6-0.6-3.1-9.2-3.5-10.8c-0.5-2-0.8-4-1.2-6     c-0.6-2.9-0.3,0.8,0.1,1.3c-0.5-0.4-0.3-2.9-0.3-3.4c-0.3-3.9-0.3-7.9-0.1-11.9c0.1-0.9,0.2-1.8,0.2-2.8c0.3-4-0.2,1.3-0.2,1.2     c-0.5-0.5,1.1-5.9,1.3-6.7c0.9-3.7,2.2-7.2,3.4-10.8c0.9-2.7-2.2,4.5-0.2,0.5c0.4-0.8,0.8-1.6,1.1-2.4c1-2,2-3.9,3.2-5.8     c0.9-1.5,1.9-3,2.9-4.4c0.2-0.3,1.3-2.1,1.5-2.1c-0.5,0.1-2.6,3.2-0.7,1c2.6-3,5.2-5.8,8.1-8.5c0.8-0.7,1.6-1.4,2.5-2.1     c0.6-0.5,2.8-2.3,0.5-0.5c-2.3,1.8,0,0,0.6-0.4c0.9-0.6,1.8-1.2,2.7-1.8c3.3-2.2,6.8-4,10.3-5.7c2.6-1.3-0.9-0.1-1.1,0.4     c0.1-0.2,2.5-1,2.5-1c1.7-0.6,3.4-1.2,5.1-1.7c1.9-0.6,3.9-1.1,5.9-1.5c0.9-0.2,1.8-0.4,2.7-0.5c4.7-0.8-1.8,0.1,0.1-0.1     c4-0.3,7.9-0.6,11.8-0.4c1.9,0.1,3.7,0.2,5.5,0.4c3.6,0.3-0.8,0-1.2-0.2c1.1,0.4,2.8,0.5,4,0.7c4.4,0.9,8.6,2.3,12.9,3.8     c2.8,1-0.8-0.6-1.1-0.5c0.4-0.2,2.6,1.2,3,1.4c2,1,3.9,2,5.8,3.1c1.9,1.1,3.7,2.3,5.5,3.6c0.6,0.4,2.9,2.2,0.6,0.4     c-2.6-2,1,0.9,1.5,1.3c3.1,2.7,6,5.6,8.7,8.8c0,0,1.7,1.8,1.7,2c-1.8-2.3-2-2.6-0.8-0.9c0.3,0.4,0.5,0.7,0.8,1.1     c1.3,1.8,2.4,3.6,3.5,5.5c1.1,1.9,2.1,3.8,3.1,5.8c0.2,0.4,1.2,2.2,1.1,2.4c-1.1-2.5-1.3-3.1-0.7-1.7c0.2,0.6,0.5,1.2,0.7,1.9     c1.5,4.2,2.7,8.5,3.6,12.9c0.2,0.8,0.2,1.9,0.5,2.7c-0.7-1.8-0.4-3.7-0.1-0.5C573.5,512,573.6,514.5,573.6,517.1     c0.1,10.5,9.1,20.5,20,20c10.8-0.5,20.1-8.8,20-20c-0.4-43.3-27.7-81.1-68.2-95.9c-38.2-14-84.6-1.5-110.5,29.9     c-14.1,17.1-22.3,37-24.2,59.1c-1.7,20.4,3.6,41.9,14.2,59.4c22.5,37,65.9,55.2,108.1,46.9c46.7-9.1,80.1-52.5,80.5-99.3     c0.1-10.5-9.3-20.5-20-20C582.7,497.5,573.7,505.8,573.6,517.1z"/></g></g><g><g><path d="M629.7,781.5c-36.9,0-73.8,0-110.7,0c-41.2,0-82.4,0.3-123.6,0c-0.3,0-0.7,0-1,0c-0.5,0-1.1,0-1.5,0     c-4.4,0,4,1.5,0-0.1c-0.4-0.1-0.8-0.2-1.3-0.4c-2-0.7-1.7-0.6,1.1,0.5c0,0-3.4-1.8-3.3-2c0.2-0.4,3.6,3.6,1.1,0.7     c-3.1-3.5-0.5,0.3-0.2,0.1c-0.1,0-1.5-2.4-1.4-2.2c-2.4-3.4,0.9,4.1-0.1,0c0,0.2-0.7-2.6-0.7-2.6c0.1,0.9,0.2,1.8,0.3,2.7     c-0.1-0.9-0.1-1.8-0.1-2.7c0-0.1,0-0.2,0-0.3c-0.2-10.8,0-21.5,0-32.3c0-2.6,0.1-5.3,0.3-7.9c0-0.4,0.5-5,0.1-1.5     c-0.4,3.5,0.2-1,0.3-1.4c0.5-2.7,1.1-5.3,1.9-7.9c0.6-2.2,1.4-4.2,2.1-6.4c1.5-4.4-2,4,0-0.1c0.4-0.8,0.7-1.6,1.1-2.4     c2.2-4.4,4.8-8.4,7.5-12.4c2.6-3.8-2.9,3.3,0.1-0.1c0.6-0.7,1.1-1.3,1.7-2c1.4-1.6,3-3.2,4.5-4.8c1.7-1.7,3.7-3.1,5.4-4.8     c2-2-4,2.8-0.4,0.3c1.1-0.7,2.1-1.5,3.2-2.3c2-1.3,4.1-2.6,6.2-3.7c1.4-0.8,5-3.4,6.6-3.2c-0.1,0-4.6,1.7-1.1,0.5     c1.3-0.4,2.5-0.9,3.8-1.3c2.6-0.8,5.2-1.5,7.8-2.1c0.9-0.2,1.8-0.4,2.7-0.5c0.4-0.1,0.9-0.2,1.3-0.2c2.2-0.3,1.8-0.3-1.2,0.1     c0.8-0.9,5.8-0.5,6.9-0.5c1.2,0,2.5,0,3.7,0c2.7,0,5.3,0,8,0c11.3,0,22.6,0,33.8,0c24,0,47.9,0,71.9,0c1.8,0,3.6,0,5.4,0     c1.9,0,3.7,0.1,5.6,0.2c0.9,0.1,1.8,0.2,2.8,0.2c4.8,0.4-4.6-0.9,0.1,0c4.9,0.9,9.7,2.1,14.4,3.8c0,0,2.4,0.7,2.5,0.9     c-0.8-0.3-1.5-0.7-2.3-1c0.8,0.4,1.6,0.7,2.4,1.1c2,0.9,4,2,5.9,3.1c1.9,1.1,3.8,2.3,5.6,3.5c0.6,0.4,2.9,1.6,3.2,2.3     c-0.7-0.5-1.3-1-2-1.5c0.7,0.5,1.4,1.1,2,1.7c3.3,2.8,6.4,6,9.3,9.3c0.3,0.3,0.6,0.7,0.8,1c1.3,1.7,1.1,1.4-0.7-1     c0.4,0.1,1.2,1.7,1.6,2.1c1.5,2.2,2.9,4.4,4.3,6.7c1.1,1.9,2.1,3.9,3.1,5.9c0.2,0.4,0.4,0.8,0.6,1.2c0.9,2,0.7,1.6-0.5-1.1     c0.4,0.2,1,2.6,1.2,3.1c1.7,4.7,2.7,9.5,3.6,14.4c0.6,2.9-0.4-5.2-0.1-0.5c0.1,1.2,0.2,2.3,0.3,3.5c0.1,1.7,0.1,3.4,0.1,5     c0,1.8,0,3.5,0,5.3c0,6.5,0,12.9,0,19.4c0,2.3,0,4.6,0,7c0,0.5,0,1,0,1.6c0,0.5,0,1.1,0,1.5c0,4.1,1.3-3.7-0.1,0     c-1.7,4.4,0.5,0.3,0.2,0.1c0,0-1.4,2.4-1.3,2.3c-1.9,3.7,3.1-2.7,0,0c0.2-0.1-1.8,1.8-1.9,1.8c0.3,0.2,3.6-2.8-0.2-0.2     c-3.2,2.3,1.2-0.9,1.2-0.4c0,0.3-3.8,1-3.8,1.1c0.9-0.1,1.8-0.2,2.7-0.3C631.5,781.4,630.6,781.5,629.7,781.5     c-10.4,0.3-20.5,9-20,20c0.5,10.6,8.8,20.3,20,20c26.7-0.7,46-21.9,46-48.2c0-11.4,0.3-22.8,0-34.1     c-1.6-46.8-35.9-89.7-82.5-98.7c-10.4-2-20.6-2.2-31.2-2.2c-12.4,0-24.7,0-37.1,0c-23.7,0-47.4,0-71.1,0     c-39.8,0.1-78.6,22.4-95.4,59.3c-7.8,17.2-10.1,34.5-10.1,53.1c0,15.5-1.9,32.3,5.5,46.5c8.3,15.8,25,24.3,42.4,24.3     c6,0,11.9,0,17.9,0c24.7,0,49.5,0,74.2,0c46.3,0,92.6,0,138.9,0c0.9,0,1.7,0,2.6,0c10.5,0,20.5-9.2,20-20     C649.2,790.6,640.9,781.5,629.7,781.5z"/></g></g></g><text x="0" y="1039" fill="#000000" font-size="5px" font-weight="bold" font-family="'Helvetica Neue', Helvetica, Arial-Unicode, Arial, Sans-serif">Created by shashank singh</text><text x="0" y="1044" fill="#000000" font-size="5px" font-weight="bold" font-family="'Helvetica Neue', Helvetica, Arial-Unicode, Arial, Sans-serif">from the Noun Project</text></svg>